<svg width="16" height="16" viewBox="0 0 16 16" fill="none" xmlns="http://www.w3.org/2000/svg">
<rect width="16" height="16" fill="#000504"/>
<g filter="url(#filter0_i)">
<path d="M2.42977 10C2.34177 10 2.26777 9.97 2.20777 9.91C2.14777 9.85 2.11777 9.776 2.11777 9.688V5.626C2.11777 5.534 2.14777 5.46 2.20777 5.404C2.26777 5.344 2.34177 5.314 2.42977 5.314H3.51577C3.85977 5.314 4.17177 5.372 4.45177 5.488C4.73577 5.6 4.98177 5.762 5.18977 5.974C5.39777 6.182 5.55777 6.428 5.66977 6.712C5.78177 6.996 5.83777 7.31 5.83777 7.654C5.83777 7.998 5.78177 8.314 5.66977 8.602C5.55777 8.886 5.39777 9.134 5.18977 9.346C4.98177 9.554 4.73577 9.716 4.45177 9.832C4.17177 9.944 3.85977 10 3.51577 10H2.42977ZM2.74177 9.448H3.51577C3.85177 9.448 4.14777 9.372 4.40377 9.22C4.66377 9.064 4.86777 8.852 5.01577 8.584C5.16377 8.312 5.23777 8.002 5.23777 7.654C5.23777 7.302 5.16377 6.992 5.01577 6.724C4.86777 6.456 4.66377 6.246 4.40377 6.094C4.14777 5.942 3.85177 5.866 3.51577 5.866H2.74177V9.448ZM6.82899 10C6.74099 10 6.66699 9.97 6.60699 9.91C6.54699 9.85 6.51699 9.776 6.51699 9.688V5.626C6.51699 5.534 6.54699 5.46 6.60699 5.404C6.66699 5.344 6.74099 5.314 6.82899 5.314H9.54099C9.63299 5.314 9.70699 5.342 9.76299 5.398C9.81899 5.45 9.84699 5.52 9.84699 5.608C9.84699 5.692 9.81899 5.76 9.76299 5.812C9.70699 5.864 9.63299 5.89 9.54099 5.89H7.14099V7.348H8.86299C8.95499 7.348 9.02899 7.376 9.08499 7.432C9.14099 7.484 9.16899 7.552 9.16899 7.636C9.16899 7.72 9.14099 7.79 9.08499 7.846C9.02899 7.898 8.95499 7.924 8.86299 7.924H7.14099V9.424H9.54099C9.63299 9.424 9.70699 9.45 9.76299 9.502C9.81899 9.554 9.84699 9.622 9.84699 9.706C9.84699 9.794 9.81899 9.866 9.76299 9.922C9.70699 9.974 9.63299 10 9.54099 10H6.82899ZM12.5182 10.06C12.1942 10.06 11.8902 10 11.6062 9.88C11.3262 9.756 11.0802 9.586 10.8682 9.37C10.6602 9.15 10.4962 8.894 10.3762 8.602C10.2602 8.31 10.2022 7.994 10.2022 7.654C10.2022 7.318 10.2602 7.006 10.3762 6.718C10.4962 6.426 10.6602 6.172 10.8682 5.956C11.0802 5.736 11.3262 5.564 11.6062 5.44C11.8862 5.316 12.1902 5.254 12.5182 5.254C12.8262 5.254 13.0902 5.294 13.3102 5.374C13.5342 5.454 13.7582 5.586 13.9822 5.77C14.0302 5.81 14.0622 5.848 14.0782 5.884C14.0942 5.92 14.1022 5.964 14.1022 6.016C14.1022 6.092 14.0742 6.156 14.0182 6.208C13.9662 6.256 13.9022 6.284 13.8262 6.292C13.7502 6.296 13.6762 6.27 13.6042 6.214C13.4562 6.086 13.3022 5.988 13.1422 5.92C12.9862 5.852 12.7782 5.818 12.5182 5.818C12.2822 5.818 12.0602 5.866 11.8522 5.962C11.6442 6.058 11.4602 6.19 11.3002 6.358C11.1442 6.526 11.0222 6.722 10.9342 6.946C10.8462 7.166 10.8022 7.402 10.8022 7.654C10.8022 7.91 10.8462 8.15 10.9342 8.374C11.0222 8.594 11.1442 8.788 11.3002 8.956C11.4602 9.124 11.6442 9.256 11.8522 9.352C12.0602 9.444 12.2822 9.49 12.5182 9.49C12.7222 9.49 12.9142 9.456 13.0942 9.388C13.2782 9.316 13.4542 9.218 13.6222 9.094C13.6942 9.042 13.7642 9.02 13.8322 9.028C13.9042 9.032 13.9642 9.06 14.0122 9.112C14.0602 9.16 14.0842 9.228 14.0842 9.316C14.0842 9.4 14.0522 9.474 13.9882 9.538C13.5562 9.886 13.0662 10.06 12.5182 10.06Z" fill="#00CCA3"/>
</g>
<defs>
<filter id="filter0_i" x="2.11777" y="5.254" width="11.9844" height="8.806" filterUnits="userSpaceOnUse" color-interpolation-filters="sRGB">
<feFlood flood-opacity="0" result="BackgroundImageFix"/>
<feBlend mode="normal" in="SourceGraphic" in2="BackgroundImageFix" result="shape"/>
<feColorMatrix in="SourceAlpha" type="matrix" values="0 0 0 0 0 0 0 0 0 0 0 0 0 0 0 0 0 0 127 0" result="hardAlpha"/>
<feOffset dy="4"/>
<feGaussianBlur stdDeviation="2"/>
<feComposite in2="hardAlpha" operator="arithmetic" k2="-1" k3="1"/>
<feColorMatrix type="matrix" values="0 0 0 0 0 0 0 0 0 0 0 0 0 0 0 0 0 0 0.25 0"/>
<feBlend mode="normal" in2="shape" result="effect1_innerShadow"/>
</filter>
</defs>
</svg>
