<svg xmlns="http://www.w3.org/2000/svg"> 
  <symbol xmlns="http://www.w3.org/2000/svg" viewBox="0 0 512 512" id="github">
    <rect  width="512" height="512" rx="15%"/>
    <path fill="var(--background-alternate)" d="M335 499c14 0 12 17 12 17H165s-2-17 12-17c13 0 16-6 16-12l-1-50c-71 16-86-28-86-28-12-30-28-37-28-37-24-16 1-16 1-16 26 2 40 26 40 26 22 39 59 28 74 22 2-17 9-28 16-35-57-6-116-28-116-126 0-28 10-51 26-69-3-6-11-32 3-67 0 0 21-7 70 26 42-12 86-12 128 0 49-33 70-26 70-26 14 35 6 61 3 67 16 18 26 41 26 69 0 98-60 120-117 126 10 8 18 24 18 48l-1 70c0 6 3 12 16 12z"/>
  </symbol>
  <symbol xmlns="http://www.w3.org/2000/svg" viewBox="0 0 24 24" id="label">
    <path d="M0 0h24v24H0V0z" fill="none"/><path d="M17.63 5.84C17.27 5.33 16.67 5 16 5L5 5.01C3.9 5.01 3 5.9 3 7v10c0 1.1.9 1.99 2 1.99L16 19c.67 0 1.27-.33 1.63-.84l3.96-5.58c.25-.35.25-.81 0-1.16l-3.96-5.58z"/>
  </symbol>
  <symbol xmlns="http://www.w3.org/2000/svg" viewBox="0 0 512 512" id="linkedin">
    <rect width="512" height="512" rx="15%"/>
    <circle fill="var(--background-alternate)" cx="142" cy="138" r="37"/>
    <path stroke="var(--background-alternate)" stroke-width="66" d="M244 194v198M142 194v198"/>
    <path fill="var(--background-alternate)" d="M276 282c0-20 13-40 36-40 24 0 33 18 33 45v105h66V279c0-61-32-89-76-89-34 0-51 19-59 32"/>
  </symbol>
  <symbol xmlns="http://www.w3.org/2000/svg" viewBox="0 0 512 512" id="twitter">
    <rect width="512" height="512" rx="15%"/>
    <path fill="var(--background-alternate)" d="M437 152a72 72 0 01-40 12a72 72 0 0032-40a72 72 0 01-45 17a72 72 0 00-122 65a200 200 0 01-145-74a72 72 0 0022 94a72 72 0 01-32-7a72 72 0 0056 69a72 72 0 01-32 1a72 72 0 0067 50a200 200 0 01-105 29a200 200 0 00309-179a200 200 0 0035-37"/>
  </symbol>
  <symbol xmlns="http://www.w3.org/2000/svg" viewBox="0 0 512 512" id="flickr">
    <rect width="512" height="512" rx="15%"/>
    <circle fill="var(--background-alternate)" cx="157" cy="256" r="79"/>
    <circle fill="var(--background-alternate)" cx="355" cy="256" r="79"/>
  </symbol>
  <symbol xmlns="http://www.w3.org/2000/svg" viewBox="0 0 512 512" id="rss">
    <rect width="512" height="512" rx="15%"/>
    <circle cx="145" cy="367" r="35" fill="var(--background-alternate)"/>
    <path fill="none" stroke="var(--background-alternate)" stroke-width="60" d="M109 241c89 0 162 73 162 162m114 0c0-152-124-276-276-276"/>
  </symbol>
  <symbol xmlns="http://www.w3.org/2000/svg" viewBox="0 0 512 512" id="instagram">
    <rect width="512" height="512" rx="15%"/>
    <g fill="none" stroke="var(--background-alternate)" stroke-width="30">
      <rect width="308" height="308" x="102" y="102" rx="81"/>
      <circle cx="256" cy="256" r="72"/>
      <circle cx="347" cy="165" r="6"/>
    </g>
  </symbol>
  <symbol xmlns="http://www.w3.org/2000/svg" viewBox="0 0 24 24" id="gallery">
    <path d="M 5 3 L 5 5 L 20 5 L 20 17 L 22 17 L 22 5 C 22 3.9069372 21.093063 3 20 3 L 5 3 z M 3 7 C 1.897 7 1 7.897 1 9 L 1 19 C 1 20.103 1.897 21 3 21 L 16 21 C 17.103 21 18 20.103 18 19 L 18 9 C 18 7.897 17.103 7 16 7 L 3 7 z"/>
  </symbol>
  <symbol xmlns="http://www.w3.org/2000/svg" viewBox="0 0 24 24" id="lightbulb">
  <path d="M11 5C12.5913 5 14.1174 5.63214 15.2426 6.75736C16.3679 7.88258 17 9.4087 17 11C17 13.22 15.79 15.16 14 16.2V18C14 18.2652 13.8946 18.5196 13.7071 18.7071C13.5196 18.8946 13.2652 19 13 19H9C8.73478 19 8.48043 18.8946 8.29289 18.7071C8.10536 18.5196 8 18.2652 8 18V16.2C6.21 15.16 5 13.22 5 11C5 9.4087 5.63214 7.88258 6.75736 6.75736C7.88258 5.63214 9.4087 5 11 5V5ZM13 20V21C13 21.2652 12.8946 21.5196 12.7071 21.7071C12.5196 21.8946 12.2652 22 12 22H10C9.73478 22 9.48043 21.8946 9.29289 21.7071C9.10536 21.5196 9 21.2652 9 21V20H13ZM19 10H22V12H19V10ZM0 10H3V12H0V10ZM12 0V3H10V0H12ZM3.92 2.5L6.05 4.64L4.63 6.05L2.5 3.93L3.92 2.5ZM15.95 4.63L18.07 2.5L19.5 3.93L17.37 6.05L15.95 4.63V4.63Z" />
  </symbol>
  <symbol xmlns="http://www.w3.org/2000/svg" viewBox="0 0 512 512" id="devCommunity">
    <rect width="512" height="512" rx="15%"/>
    <path fill="var(--background-alternate)" d="M140.47 203.94h-17.44v104.47h17.45c10.155-.545 17.358-8.669 17.47-17.41v-69.65c-.696-10.364-7.796-17.272-17.48-17.41zm45.73 87.25c0 18.81-11.61 47.31-48.36 47.25h-46.4V172.98h47.38c35.44 0 47.36 28.46 47.37 47.28zm100.68-88.66H233.6v38.42h32.57v29.57H233.6v38.41h53.29v29.57h-62.18c-11.16.29-20.44-8.53-20.72-19.69V193.7c-.27-11.15 8.56-20.41 19.71-20.69h63.19zm103.64 115.29c-13.2 30.75-36.85 24.63-47.44 0l-38.53-144.8h32.57l29.71 113.72 29.57-113.72h32.58z"/>
  </symbol>
  <symbol xmlns="http://www.w3.org/2000/svg" viewBox="0 0 500 500" id="logo">
    <g transform="translate(0.000000,500.000000) scale(0.100000,-0.100000)">
    <path d="M2255 4994 c-408 -59 -615 -121 -910 -273 -232 -120 -421 -257 -606
    -441 -211 -210 -350 -405 -484 -675 -177 -357 -255 -696 -255 -1105 0 -476
    116 -895 360 -1300 330 -549 866 -950 1495 -1120 82 -22 158 -40 170 -39 11 0
    -19 10 -67 21 l-88 21 0 237 c0 178 -3 240 -12 247 -7 6 -43 20 -80 32 -84 28
    -132 60 -136 90 -2 13 19 94 46 180 28 86 69 217 92 291 121 401 223 704 264
    793 18 40 44 95 57 122 29 64 136 170 217 215 35 19 96 56 135 81 86 56 209
    118 312 159 58 23 85 29 114 24 34 -5 45 -2 84 27 25 19 52 45 59 58 33 60 -4
    251 -63 318 -19 22 -29 48 -33 80 -3 26 -16 77 -28 113 -12 37 -23 98 -25 140
    -4 99 -22 317 -29 358 -13 67 4 117 68 202 72 96 192 182 302 218 147 48 348
    38 471 -23 94 -46 191 -142 235 -230 32 -64 33 -73 40 -221 4 -85 3 -191 -2
    -237 -5 -45 -11 -138 -15 -207 -3 -69 -11 -136 -18 -150 -7 -14 -22 -61 -34
    -105 -12 -44 -42 -117 -67 -162 -24 -44 -44 -86 -44 -91 0 -12 17 -19 100 -42
    492 -134 699 -235 825 -402 54 -72 152 -261 181 -348 21 -63 21 -63 58 101 45
    203 59 358 53 609 -5 249 -20 362 -72 566 -45 175 -91 298 -180 479 -80 164
    -134 252 -238 392 -383 516 -958 867 -1597 974 -98 17 -178 22 -375 24 -137 2
    -263 1 -280 -1z"/>
    </g>
  </symbol>
</svg>