<svg width="192" height="192" viewBox="0 0 192 192" fill="none" xmlns="http://www.w3.org/2000/svg">
<rect width="192" height="192" fill="#000504"/>
<path d="M43.68 67.528H59.904C66.624 67.528 72.416 68.84 77.28 71.464C82.144 74.024 85.856 77.768 88.416 82.696C90.976 87.624 92.256 93.512 92.256 100.36C92.256 110.6 89.408 118.6 83.712 124.36C78.016 130.12 70.08 133 59.904 133H43.68V67.528ZM59.712 126.472C67.52 126.472 73.632 124.328 78.048 120.04C82.464 115.752 84.672 109.192 84.672 100.36C84.672 91.464 82.464 84.872 78.048 80.584C73.632 76.296 67.52 74.152 59.712 74.152H50.88V126.472H59.712Z" fill="#00A380"/>
<path d="M135.36 97.768C139.136 98.728 142.048 100.584 144.096 103.336C146.144 106.088 147.168 109.704 147.168 114.184C147.168 120.008 145.408 124.616 141.888 128.008C138.368 131.336 133.536 133 127.392 133H103.584V67.528H125.184C131.008 67.528 135.584 69.064 138.912 72.136C142.24 75.144 143.904 79.176 143.904 84.232C143.904 87.496 143.168 90.312 141.696 92.68C140.224 94.984 138.112 96.68 135.36 97.768ZM110.784 95.464H126.048C132.896 95.464 136.32 91.72 136.32 84.232C136.32 80.84 135.328 78.216 133.344 76.36C131.36 74.504 128.608 73.576 125.088 73.576H110.784V95.464ZM126.432 127.048C130.528 127.048 133.728 125.896 136.032 123.592C138.4 121.288 139.584 118.152 139.584 114.184C139.584 110.216 138.4 107.112 136.032 104.872C133.728 102.568 130.528 101.416 126.432 101.416H110.784V127.048H126.432Z" fill="#00A380"/>
</svg>
